<?xml version="1.0" encoding="UTF-8"?> <svg xmlns="http://www.w3.org/2000/svg" width="184" height="184" viewBox="0 0 184 184" fill="none"> <path d="M181.508 63.3503L177.476 59.3189C175.249 57.0917 171.638 57.0917 169.411 59.3189L137.454 91.2752V6.25102C137.454 3.0917 134.896 0.532803 131.736 0.532803H45.963C44.0216 0.532803 42.0946 0.18971 40.9567 1.32764L1.01208 41.2722C-0.125841 42.4101 0.217252 44.1571 0.217252 46.2785V177.797C0.217252 180.957 2.77615 183.516 5.93547 183.516H131.736C134.896 183.516 137.454 180.957 137.454 177.797V115.469L181.508 71.4158C183.735 69.1885 183.735 65.5775 181.508 63.3503ZM40.2448 10.2795V40.5603H9.96395L40.2448 10.2795ZM131.736 177.797H5.93547V46.2785H43.1039C44.6821 46.2785 45.963 44.9976 45.963 43.4194V6.25102H131.736V96.9934L107.577 121.153C107.119 120.841 106.599 120.618 106.004 120.618H31.6674C30.0892 120.618 28.8083 121.899 28.8083 123.477C28.8083 125.056 30.0892 126.336 31.6674 126.336H102.396L85.2157 143.517C84.1349 143.671 83.2286 144.417 82.9713 145.544L80.5725 156.034C80.2094 156.677 80.1064 157.481 80.3523 158.29C80.4352 158.564 80.5953 158.796 80.744 159.03C80.7669 159.07 80.7812 159.107 80.8041 159.145C80.9356 159.339 81.09 159.499 81.2587 159.659C81.4188 159.825 81.5789 159.98 81.7733 160.111C81.8105 160.134 81.8505 160.151 81.8905 160.174C82.1278 160.323 82.3566 160.48 82.631 160.566C83.4402 160.814 84.2407 160.709 84.884 160.345L95.3741 157.947C96.5749 157.672 97.3497 156.672 97.4298 155.496L131.739 121.187V177.797H131.736ZM92.4235 152.431L87.3114 153.601L88.5322 148.257L173.439 63.3503L177.47 67.3816L92.4235 152.431ZM31.6646 69.1514H106.001C107.58 69.1514 108.86 67.8705 108.86 66.2923C108.86 64.714 107.58 63.4332 106.001 63.4332H31.6646C30.0864 63.4332 28.8055 64.714 28.8055 66.2923C28.8055 67.8705 30.0864 69.1514 31.6646 69.1514ZM31.6646 97.7425H106.001C107.58 97.7425 108.86 96.4616 108.86 94.8833C108.86 93.3051 107.58 92.0242 106.001 92.0242H31.6646C30.0864 92.0242 28.8055 93.3051 28.8055 94.8833C28.8055 96.4616 30.0864 97.7425 31.6646 97.7425Z" fill="url(#paint0_linear_64_965)"></path> <defs> <linearGradient id="paint0_linear_64_965" x1="91.6733" y1="0.484253" x2="91.6733" y2="183.516" gradientUnits="userSpaceOnUse"> <stop stop-color="#FE4E32"></stop> <stop offset="1" stop-color="#FFB076"></stop> </linearGradient> </defs> </svg> 