<?xml version="1.0" encoding="UTF-8"?> <svg xmlns="http://www.w3.org/2000/svg" width="777" height="326" viewBox="0 0 777 326" fill="none"> <path d="M277.821 138.909C271.658 138.909 265.935 137.955 260.652 136.047C255.442 134.066 250.893 131.278 247.004 127.682C243.189 124.087 240.217 119.831 238.089 114.915C235.961 109.999 234.897 104.569 234.897 98.6261C234.897 92.6827 235.961 87.253 238.089 82.3369C240.217 77.4208 243.189 73.1651 247.004 69.5697C250.893 65.9744 255.442 63.2228 260.652 61.3151C265.935 59.334 271.658 58.3434 277.821 58.3434C285.379 58.3434 292.056 59.6642 297.853 62.3057C303.723 64.9471 308.565 68.7626 312.381 73.7521L295.982 88.3903C293.707 85.5287 291.176 83.3275 288.387 81.7866C285.673 80.1724 282.591 79.3652 279.142 79.3652C276.427 79.3652 273.969 79.8055 271.768 80.686C269.567 81.5665 267.659 82.8505 266.045 84.5381C264.504 86.2258 263.293 88.2802 262.413 90.7016C261.532 93.0496 261.092 95.6911 261.092 98.6261C261.092 101.561 261.532 104.239 262.413 106.661C263.293 109.009 264.504 111.026 266.045 112.714C267.659 114.402 269.567 115.686 271.768 116.566C273.969 117.447 276.427 117.887 279.142 117.887C282.591 117.887 285.673 117.116 288.387 115.576C291.176 113.961 293.707 111.723 295.982 108.862L312.381 123.5C308.565 128.416 303.723 132.232 297.853 134.946C292.056 137.588 285.379 138.909 277.821 138.909ZM325.317 117.006C329.867 118.18 333.425 118.584 335.993 118.217C338.562 117.777 340.836 116.199 342.817 113.484L346.559 108.201L348.761 105.78L371.103 60.1044H396.197L365.27 118.107C361.895 124.417 357.822 129.333 353.053 132.855C348.357 136.304 343.147 138.285 337.424 138.799C331.701 139.312 325.648 138.285 319.264 135.717L325.317 117.006ZM348.43 126.142L312.55 60.1044H339.956L362.518 108.201L348.43 126.142ZM401.593 137.148V60.1044H476.105V137.148H450.57V74.7426L456.184 80.2457H421.514L427.127 74.7426V137.148H401.593ZM513.502 88.7205H547.841V107.431H513.502V88.7205ZM515.263 117.557H553.784V137.148H489.728V60.1044H552.354V79.6954H515.263V117.557ZM564.321 137.148V60.1044H601.412C608.603 60.1044 614.803 61.2784 620.012 63.6264C625.295 65.9744 629.368 69.3496 632.229 73.7521C635.091 78.0812 636.522 83.2174 636.522 89.1607C636.522 95.1041 635.091 100.24 632.229 104.569C629.368 108.898 625.295 112.274 620.012 114.695C614.803 117.043 608.603 118.217 601.412 118.217H578.739L590.296 107.101V137.148H564.321ZM590.296 109.962L578.739 98.1858H599.761C603.356 98.1858 605.998 97.3787 607.685 95.7644C609.446 94.1502 610.327 91.949 610.327 89.1607C610.327 86.3725 609.446 84.1713 607.685 82.557C605.998 80.9428 603.356 80.1357 599.761 80.1357H578.739L590.296 68.3591V109.962ZM239.08 271.148V194.104H276.171C283.361 194.104 289.561 195.278 294.771 197.626C300.054 199.974 304.126 203.35 306.988 207.752C309.849 212.081 311.28 217.217 311.28 223.161C311.28 229.104 309.849 234.24 306.988 238.569C304.126 242.898 300.054 246.274 294.771 248.695C289.561 251.043 283.361 252.217 276.171 252.217H253.498L265.054 241.101V271.148H239.08ZM265.054 243.962L253.498 232.186H274.52C278.115 232.186 280.756 231.379 282.444 229.764C284.205 228.15 285.086 225.949 285.086 223.161C285.086 220.373 284.205 218.171 282.444 216.557C280.756 214.943 278.115 214.136 274.52 214.136H253.498L265.054 202.359V243.962ZM342.927 222.72H377.267V241.431H342.927V222.72ZM344.688 251.557H383.21V271.148H319.154V194.104H381.779V213.695H344.688V251.557ZM393.747 271.148V194.104H415.099L445.916 244.403H434.69L464.627 194.104H485.979L486.199 271.148H462.535L462.315 229.764H466.057L445.586 264.214H434.139L412.787 229.764H417.41V271.148H393.747ZM538.906 272.909C532.669 272.909 526.873 271.918 521.516 269.937C516.233 267.956 511.648 265.168 507.759 261.572C503.87 257.904 500.825 253.611 498.624 248.695C496.496 243.779 495.432 238.423 495.432 232.626C495.432 226.756 496.496 221.4 498.624 216.557C500.825 211.641 503.87 207.385 507.759 203.79C511.648 200.121 516.233 197.296 521.516 195.315C526.873 193.334 532.669 192.343 538.906 192.343C545.216 192.343 551.013 193.334 556.296 195.315C561.579 197.296 566.165 200.121 570.054 203.79C573.943 207.385 576.951 211.641 579.079 216.557C581.28 221.4 582.381 226.756 582.381 232.626C582.381 238.423 581.28 243.779 579.079 248.695C576.951 253.611 573.943 257.904 570.054 261.572C566.165 265.168 561.579 267.956 556.296 269.937C551.013 271.918 545.216 272.909 538.906 272.909ZM538.906 251.887C541.328 251.887 543.565 251.447 545.62 250.566C547.748 249.686 549.582 248.438 551.123 246.824C552.737 245.136 553.985 243.119 554.865 240.771C555.746 238.349 556.186 235.634 556.186 232.626C556.186 229.618 555.746 226.94 554.865 224.592C553.985 222.17 552.737 220.152 551.123 218.538C549.582 216.851 547.748 215.566 545.62 214.686C543.565 213.805 541.328 213.365 538.906 213.365C536.485 213.365 534.21 213.805 532.082 214.686C530.028 215.566 528.194 216.851 526.579 218.538C525.038 220.152 523.828 222.17 522.947 224.592C522.067 226.94 521.627 229.618 521.627 232.626C521.627 235.634 522.067 238.349 522.947 240.771C523.828 243.119 525.038 245.136 526.579 246.824C528.194 248.438 530.028 249.686 532.082 250.566C534.21 251.447 536.485 251.887 538.906 251.887ZM641.697 194.104H667.672V271.148H641.697V194.104ZM617.704 271.148H591.729V194.104H617.704V271.148ZM643.458 242.752H615.943V221.4H643.458V242.752ZM698.869 271.148V208.633L704.482 214.246H676.306V194.104H746.966V214.246H718.79L724.403 208.633V271.148H698.869Z" fill="white"></path> <path d="M110.216 148.273C86.5908 148.273 67.1846 164.304 61.2783 185.398L78.9971 192.148C88.2783 195.523 97.5596 195.523 106.841 191.304C119.497 184.554 134.685 184.554 148.185 189.616L160.841 194.679C158.31 168.523 136.372 148.273 110.216 148.273Z" fill="white"></path> <path d="M194.591 30.1477H25.8408C11.4971 30.1477 0.52832 41.1165 0.52832 55.4602V274.835C0.52832 289.179 11.4971 300.148 25.8408 300.148H194.591C208.935 300.148 219.903 289.179 219.903 274.835V55.4602C219.903 41.1165 208.935 30.1477 194.591 30.1477ZM146.497 83.304C147.341 82.4602 148.185 81.6165 149.028 81.6165C152.403 79.929 155.778 80.7727 158.31 83.304C159.997 84.9915 160.841 86.679 160.841 89.2102C160.841 90.054 160.841 90.054 160.841 90.8977C160.841 91.7415 160.841 91.7415 159.997 92.5852C159.997 93.429 159.153 93.429 159.153 94.2727L158.31 95.1165C156.622 96.804 154.935 97.6477 152.403 97.6477C151.56 97.6477 149.872 97.6477 149.028 96.804C148.185 95.9602 147.341 95.9602 146.497 95.1165C144.81 93.429 143.966 91.7415 143.966 89.2102C143.966 86.679 144.81 84.9915 146.497 83.304ZM121.185 83.304C122.028 82.4602 122.872 81.6165 123.716 81.6165C127.091 79.929 130.466 80.7727 132.997 83.304C134.685 84.9915 135.528 86.679 135.528 89.2102C135.528 90.054 135.528 90.054 135.528 90.8977C135.528 91.7415 135.528 91.7415 134.685 92.5852C134.685 93.429 133.841 93.429 133.841 94.2727L132.997 95.1165C131.31 96.804 129.622 97.6477 127.091 97.6477C126.247 97.6477 124.56 97.6477 123.716 96.804C122.872 95.9602 122.028 95.9602 121.185 95.1165C119.497 93.429 118.653 91.7415 118.653 89.2102C118.653 86.679 119.497 84.9915 121.185 83.304ZM34.2783 89.2102C34.2783 74.8665 45.2471 63.8977 59.5908 63.8977C73.9346 63.8977 84.9033 74.8665 84.9033 89.2102C84.9033 103.554 73.9346 114.523 59.5908 114.523C45.2471 114.523 34.2783 103.554 34.2783 89.2102ZM110.216 266.398C73.0908 266.398 42.7158 236.023 42.7158 198.898C42.7158 161.773 73.0908 131.398 110.216 131.398C147.341 131.398 177.716 161.773 177.716 198.898C177.716 236.023 147.341 266.398 110.216 266.398ZM186.153 90.8977C186.153 91.7415 186.153 91.7415 185.31 92.5852C185.31 93.429 184.466 93.429 184.466 94.2727L183.622 95.1165C181.935 96.804 180.247 97.6477 177.716 97.6477C176.872 97.6477 175.185 97.6477 174.341 96.804C173.497 95.9602 172.653 95.9602 171.81 95.1165C170.122 93.429 169.278 91.7415 169.278 89.2102C169.278 86.679 170.122 84.9915 171.81 83.304C172.653 82.4602 173.497 81.6165 174.341 81.6165C177.716 79.929 181.091 80.7727 183.622 83.304C185.31 84.9915 186.153 86.679 186.153 89.2102C186.153 90.054 186.153 90.054 186.153 90.8977Z" fill="white"></path> <line x1="0.503906" y1="2.5" x2="776.025" y2="2.5" stroke="white" stroke-width="5"></line> <line x1="0.503906" y1="323.5" x2="776.025" y2="323.5" stroke="white" stroke-width="5"></line> </svg> 