<?xml version="1.0" encoding="UTF-8"?> <svg xmlns="http://www.w3.org/2000/svg" width="123" height="124" viewBox="0 0 123 124" fill="none"> <path d="M77.4952 123.421C63.4441 123.421 42.2535 108.88 24.7664 87.2396C1.89417 58.9361 -6.57953 29.1332 5.47522 19.3916L12.1898 13.9665C13.8242 12.6459 15.8582 11.9187 17.9173 11.9187C20.4888 11.9187 22.8677 13.0357 24.4393 14.9834L37.2509 30.8376C40.1923 34.4787 39.485 39.9461 35.6742 43.0259C28.1752 49.087 29.837 63.6229 39.3775 75.4301C45.8795 83.4716 54.6484 88.4666 62.2646 88.4666C65.4407 88.4666 68.1395 87.587 70.2834 85.854C71.9178 84.5334 73.9518 83.8062 76.011 83.8062C78.5822 83.8062 80.9613 84.9235 82.533 86.8699L95.3448 102.725C96.7917 104.512 97.4087 106.781 97.0841 109.113C96.7666 111.382 95.5898 113.442 93.7681 114.914L87.0561 120.34C84.5246 122.384 81.3085 123.421 77.4952 123.421ZM17.917 17.0363C17.0252 17.0363 16.1328 17.3596 15.4081 17.947L8.69355 23.3723C0.23241 30.2091 6.27221 56.2113 28.7446 84.0236C45.0549 104.206 65.1006 118.303 77.4952 118.303C80.1091 118.303 82.2433 117.649 83.8373 116.359L90.5491 110.933C91.3588 110.281 91.8787 109.382 92.0135 108.406C92.141 107.492 91.9111 106.617 91.3664 105.942L78.5543 90.0857C77.4325 88.7013 75.0536 88.574 73.5015 89.8347C70.4654 92.2874 66.5799 93.5829 62.2641 93.5842C53.1407 93.5842 42.8454 87.8604 35.4014 78.6459C30.0336 72.0077 26.7078 64.3325 26.033 57.0343C25.3232 49.3541 27.6047 42.9659 32.4549 39.0452C34.0742 37.7382 34.439 35.4993 33.2697 34.0537L20.4584 18.1982C19.861 17.4597 18.9339 17.0363 17.917 17.0363Z" fill="url(#paint0_linear_64_1034)"></path> <path d="M65.8278 70.106C65.5428 70.106 65.2557 70.0586 64.9755 69.9599C63.8635 69.5676 63.1639 68.4631 63.2814 67.2888L64.8006 52.334H55.4927C54.0782 52.334 52.9338 51.1883 52.9338 49.7751V3.15509C52.9338 1.74185 54.0782 0.596191 55.4927 0.596191H120.441C121.855 0.596191 123 1.74185 123 3.15509V49.7754C123 51.1886 121.856 52.3343 120.441 52.3343H78.7972L67.972 68.9443C67.4895 69.685 66.6752 70.106 65.8278 70.106ZM58.0514 47.2165H67.6321C68.3568 47.2165 69.0463 47.5224 69.5313 48.0599C70.016 48.5973 70.251 49.3142 70.1784 50.0342L69.4387 57.322L75.2661 48.3787C75.7385 47.654 76.5456 47.2167 77.4101 47.2167H117.882V5.714H58.0514V47.2165Z" fill="url(#paint1_linear_64_1034)"></path> <defs> <linearGradient id="paint0_linear_64_1034" x1="48.5842" y1="11.9187" x2="48.5842" y2="123.421" gradientUnits="userSpaceOnUse"> <stop stop-color="#FE4E32"></stop> <stop offset="1" stop-color="#FFB076"></stop> </linearGradient> <linearGradient id="paint1_linear_64_1034" x1="87.9669" y1="0.596191" x2="87.9669" y2="70.106" gradientUnits="userSpaceOnUse"> <stop stop-color="#FE4E32"></stop> <stop offset="1" stop-color="#FFB076"></stop> </linearGradient> </defs> </svg> 