<?xml version="1.0" encoding="UTF-8"?> <svg xmlns="http://www.w3.org/2000/svg" width="200" height="183" viewBox="0 0 200 183" fill="none"> <path d="M89.3152 82.2294L61.8065 54.7215L69.7641 46.7643L97.2725 74.2723L101.801 69.7442L72.9158 40.8585L81.2308 32.544C81.2969 32.4779 81.3581 32.4091 81.4174 32.3376C81.4831 32.2822 81.5478 32.226 81.61 32.1642L96.6487 17.1255C97.8834 15.8915 97.9018 13.8954 96.6893 12.6387L96.5186 12.4605C96.3761 12.3108 96.2332 12.1616 96.0866 12.0146C88.5687 4.4969 78.8095 0.00854492 69.9802 0.00854492C64.0258 0.00854492 58.9032 1.98349 55.1667 5.72031C55.0854 5.80132 55.0103 5.88711 54.9389 5.97556C54.8897 6.01862 54.8401 6.06045 54.7936 6.10684L20.6839 40.2171C19.4335 41.4679 19.4335 43.4952 20.6839 44.746L25.7226 49.7843L21.5617 53.9452L16.5231 48.9059C15.9222 48.3055 15.1079 47.9678 14.2586 47.9678C13.4094 47.9678 12.595 48.3055 11.9942 48.9059L1.54871 59.3524C0.298218 60.6032 0.298218 62.6304 1.54871 63.8805L23.4572 85.7891C24.0581 86.3895 24.8724 86.7273 25.7216 86.7273C26.5709 86.7273 27.3857 86.3896 27.9861 85.7891L38.4307 75.3429C39.6812 74.0928 39.6812 72.0656 38.4307 70.8148L33.3929 65.7765L37.5538 61.6157L42.5916 66.6539C43.217 67.2794 44.0364 67.5912 44.856 67.5912C45.6754 67.5912 46.4952 67.2785 47.1201 66.6539L55.901 57.873L84.7867 86.7586L89.3152 82.2294ZM69.9802 6.41292C76.507 6.41292 83.778 9.55213 89.8155 14.9023L79.3459 25.3712L62.2656 8.29076C64.4301 7.05481 67.0448 6.41292 69.9802 6.41292ZM25.7216 78.996L8.34161 61.6163L14.2586 55.6989L31.6378 73.0785L25.7216 78.996ZM29.0954 61.0169L26.3211 58.2426L30.2506 54.3132L33.0248 57.0874L29.0954 61.0169ZM44.856 59.8608L27.4769 42.4811L57.0582 12.8996L74.4382 30.28L44.856 59.8608Z" fill="url(#paint0_linear_64_1115)"></path> <path d="M195.884 163.826L129.997 97.9399L125.469 102.468L189.091 166.091L181.134 174.049L117.511 110.425L112.983 114.954L178.87 180.842C179.471 181.442 180.285 181.78 181.134 181.78C181.984 181.78 182.799 181.442 183.399 180.842L195.884 168.355C197.134 167.104 197.134 165.077 195.884 163.826Z" fill="url(#paint1_linear_64_1115)"></path> <path d="M197.709 20.4573C197.346 19.4172 196.473 18.6373 195.399 18.3916C194.326 18.1467 193.201 18.4701 192.422 19.2493L179.484 32.1866L167.354 20.0551L180.292 7.1185C181.071 6.33934 181.395 5.21458 181.15 4.14066C180.904 3.06651 180.124 2.19401 179.084 1.83078C175.858 0.704477 172.483 0.133057 169.054 0.133057C160.946 0.133057 153.324 3.29024 147.591 9.02276C141.857 14.7558 138.699 22.3782 138.699 30.4864C138.699 34.4086 139.446 38.2157 140.857 41.7521L59.1511 123.457C55.6153 122.046 51.8091 121.301 47.8873 121.301C39.7795 121.301 32.157 124.458 26.4235 130.191C18.2332 138.382 15.4099 150.744 19.2312 161.684C19.5944 162.724 20.4669 163.504 21.5409 163.75C22.6144 163.995 23.7392 163.672 24.5187 162.893L37.4566 149.955L49.588 162.084L36.6497 175.023C35.8706 175.802 35.5469 176.926 35.792 178.001C36.0377 179.074 36.8177 179.946 37.8576 180.31C41.0831 181.437 44.4572 182.008 47.8868 182.009C47.8877 182.009 47.8877 182.009 47.8886 182.009C55.9946 182.009 63.6172 178.85 69.3505 173.117C78.1797 164.287 80.4178 151.326 76.0716 140.398L157.789 58.6823C161.325 60.0948 165.132 60.84 169.054 60.84C169.055 60.84 169.054 60.84 169.055 60.84C177.161 60.84 184.784 57.6834 190.517 51.9501C198.707 43.7597 201.53 31.3977 197.709 20.4573ZM64.8215 168.589C60.2978 173.113 54.2844 175.604 47.8886 175.604C47.8886 175.604 47.8873 175.604 47.8868 175.604C47.0085 175.603 46.1343 175.556 45.2676 175.462L56.3805 164.349C56.9813 163.748 57.3187 162.934 57.3187 162.084C57.3187 161.236 56.9813 160.421 56.3805 159.82L39.7206 143.162C38.4707 141.912 36.4429 141.912 35.1921 143.162L24.0864 154.268C23.3278 147.15 25.788 139.885 30.9526 134.719C35.4763 130.196 41.4901 127.705 47.8874 127.705C54.2841 127.705 60.298 130.196 64.8212 134.72C74.1585 144.057 74.1585 159.251 64.8215 168.589ZM73.2858 134.127L65.4126 126.253L143.374 48.2931L151.248 56.1662L73.2858 134.127ZM185.989 47.4219C181.465 51.9446 175.451 54.4356 169.054 54.4356C162.657 54.4356 156.642 51.9447 152.118 47.421C147.596 42.8974 145.104 36.8834 145.104 30.4863C145.104 24.0891 147.596 18.0753 152.119 13.5514C156.642 9.0282 162.657 6.53721 169.054 6.53721C169.933 6.53721 170.807 6.58482 171.674 6.67926L160.561 17.7911C159.96 18.3914 159.623 19.2062 159.623 20.055C159.623 20.9047 159.96 21.7186 160.561 22.319L177.219 38.9786C178.47 40.2294 180.498 40.2294 181.748 38.9795L192.854 27.8737C193.613 34.9912 191.153 42.2568 185.989 47.4219Z" fill="url(#paint2_linear_64_1115)"></path> <defs> <linearGradient id="paint0_linear_64_1115" x1="51.206" y1="0.00854492" x2="51.206" y2="86.7586" gradientUnits="userSpaceOnUse"> <stop stop-color="#FE4E32"></stop> <stop offset="1" stop-color="#FFB076"></stop> </linearGradient> <linearGradient id="paint1_linear_64_1115" x1="154.902" y1="97.9399" x2="154.902" y2="181.78" gradientUnits="userSpaceOnUse"> <stop stop-color="#FE4E32"></stop> <stop offset="1" stop-color="#FFB076"></stop> </linearGradient> <linearGradient id="paint2_linear_64_1115" x1="108.47" y1="0.133057" x2="108.47" y2="182.009" gradientUnits="userSpaceOnUse"> <stop stop-color="#FE4E32"></stop> <stop offset="1" stop-color="#FFB076"></stop> </linearGradient> </defs> </svg> 